<svg id="visual" viewBox="0 0 900 600" width="900" height="600" xmlns="http://www.w3.org/2000/svg" xmlns:xlink="http://www.w3.org/1999/xlink" version="1.1"><path d="M0 331L21.5 337C43 343 86 355 128.8 364.7C171.7 374.3 214.3 381.7 257.2 372.7C300 363.7 343 338.3 385.8 335C428.7 331.7 471.3 350.3 514.2 364C557 377.7 600 386.3 642.8 381.8C685.7 377.3 728.3 359.7 771.2 354C814 348.3 857 354.7 878.5 357.8L900 361L900 601L878.5 601C857 601 814 601 771.2 601C728.3 601 685.7 601 642.8 601C600 601 557 601 514.2 601C471.3 601 428.7 601 385.8 601C343 601 300 601 257.2 601C214.3 601 171.7 601 128.8 601C86 601 43 601 21.5 601L0 601Z" fill="#fa7268"></path><path d="M0 445L21.5 445.5C43 446 86 447 128.8 447.3C171.7 447.7 214.3 447.3 257.2 447C300 446.7 343 446.3 385.8 439.8C428.7 433.3 471.3 420.7 514.2 410.7C557 400.7 600 393.3 642.8 399C685.7 404.7 728.3 423.3 771.2 434.7C814 446 857 450 878.5 452L900 454L900 601L878.5 601C857 601 814 601 771.2 601C728.3 601 685.7 601 642.8 601C600 601 557 601 514.2 601C471.3 601 428.7 601 385.8 601C343 601 300 601 257.2 601C214.3 601 171.7 601 128.8 601C86 601 43 601 21.5 601L0 601Z" fill="#ff879e"></path><path d="M0 426L21.5 428.8C43 431.7 86 437.3 128.8 438.5C171.7 439.7 214.3 436.3 257.2 435C300 433.7 343 434.3 385.8 437.3C428.7 440.3 471.3 445.7 514.2 443C557 440.3 600 429.7 642.8 422.7C685.7 415.7 728.3 412.3 771.2 420.5C814 428.7 857 448.3 878.5 458.2L900 468L900 601L878.5 601C857 601 814 601 771.2 601C728.3 601 685.7 601 642.8 601C600 601 557 601 514.2 601C471.3 601 428.7 601 385.8 601C343 601 300 601 257.2 601C214.3 601 171.7 601 128.8 601C86 601 43 601 21.5 601L0 601Z" fill="#fea2cb"></path><path d="M0 516L21.5 507.3C43 498.7 86 481.3 128.8 483.7C171.7 486 214.3 508 257.2 511.7C300 515.3 343 500.7 385.8 496.8C428.7 493 471.3 500 514.2 496.7C557 493.3 600 479.7 642.8 476.2C685.7 472.7 728.3 479.3 771.2 486.8C814 494.3 857 502.7 878.5 506.8L900 511L900 601L878.5 601C857 601 814 601 771.2 601C728.3 601 685.7 601 642.8 601C600 601 557 601 514.2 601C471.3 601 428.7 601 385.8 601C343 601 300 601 257.2 601C214.3 601 171.7 601 128.8 601C86 601 43 601 21.5 601L0 601Z" fill="#f3beec"></path><path d="M0 516L21.5 518.5C43 521 86 526 128.8 528.7C171.7 531.3 214.3 531.7 257.2 533.7C300 535.7 343 539.3 385.8 538C428.7 536.7 471.3 530.3 514.2 527C557 523.7 600 523.3 642.8 521.3C685.7 519.3 728.3 515.7 771.2 515C814 514.3 857 516.7 878.5 517.8L900 519L900 601L878.5 601C857 601 814 601 771.2 601C728.3 601 685.7 601 642.8 601C600 601 557 601 514.2 601C471.3 601 428.7 601 385.8 601C343 601 300 601 257.2 601C214.3 601 171.7 601 128.8 601C86 601 43 601 21.5 601L0 601Z" fill="#ebd9fe"></path></svg>