<svg id="visual" viewBox="0 0 900 600" width="900" height="600" xmlns="http://www.w3.org/2000/svg" xmlns:xlink="http://www.w3.org/1999/xlink" version="1.1"><path d="M0 146L10.7 146.8C21.3 147.7 42.7 149.3 64.2 137.3C85.7 125.3 107.3 99.7 128.8 98.7C150.3 97.7 171.7 121.3 193 132.2C214.3 143 235.7 141 257 130.7C278.3 120.3 299.7 101.7 321.2 94.3C342.7 87 364.3 91 385.8 98C407.3 105 428.7 115 450 109.2C471.3 103.3 492.7 81.7 514.2 81.8C535.7 82 557.3 104 578.8 118.3C600.3 132.7 621.7 139.3 643 141.7C664.3 144 685.7 142 707 130.7C728.3 119.3 749.7 98.7 771.2 90.5C792.7 82.3 814.3 86.7 835.8 97.2C857.3 107.7 878.7 124.3 889.3 132.7L900 141L900 0L889.3 0C878.7 0 857.3 0 835.8 0C814.3 0 792.7 0 771.2 0C749.7 0 728.3 0 707 0C685.7 0 664.3 0 643 0C621.7 0 600.3 0 578.8 0C557.3 0 535.7 0 514.2 0C492.7 0 471.3 0 450 0C428.7 0 407.3 0 385.8 0C364.3 0 342.7 0 321.2 0C299.7 0 278.3 0 257 0C235.7 0 214.3 0 193 0C171.7 0 150.3 0 128.8 0C107.3 0 85.7 0 64.2 0C42.7 0 21.3 0 10.7 0L0 0Z" fill="#FA7268" stroke-linecap="round" stroke-linejoin="miter"></path></svg>