<svg id="visual" viewBox="0 0 900 450" width="900" height="450" xmlns="http://www.w3.org/2000/svg" xmlns:xlink="http://www.w3.org/1999/xlink" version="1.1"><path d="M0 381L13.7 377.7C27.3 374.3 54.7 367.7 82 365C109.3 362.3 136.7 363.7 163.8 368C191 372.3 218 379.7 245.2 379.3C272.3 379 299.7 371 327 363.2C354.3 355.3 381.7 347.7 409 350.2C436.3 352.7 463.7 365.3 491 362.7C518.3 360 545.7 342 573 333.3C600.3 324.7 627.7 325.3 654.8 327.8C682 330.3 709 334.7 736.2 343.5C763.3 352.3 790.7 365.7 818 368C845.3 370.3 872.7 361.7 886.3 357.3L900 353L900 451L886.3 451C872.7 451 845.3 451 818 451C790.7 451 763.3 451 736.2 451C709 451 682 451 654.8 451C627.7 451 600.3 451 573 451C545.7 451 518.3 451 491 451C463.7 451 436.3 451 409 451C381.7 451 354.3 451 327 451C299.7 451 272.3 451 245.2 451C218 451 191 451 163.8 451C136.7 451 109.3 451 82 451C54.7 451 27.3 451 13.7 451L0 451Z" fill="#FA7268" stroke-linecap="round" stroke-linejoin="miter"></path></svg>